<?xml version="1.0" encoding="UTF-8" standalone="no"?>
<svg
   xmlns:dc="http://purl.org/dc/elements/1.1/"
   xmlns:cc="http://creativecommons.org/ns#"
   xmlns:rdf="http://www.w3.org/1999/02/22-rdf-syntax-ns#"
   xmlns:svg="http://www.w3.org/2000/svg"
   xmlns="http://www.w3.org/2000/svg"
   width="1.2347387in"
   height="1.8521812in"
   version="1.0"
   gorn="0"
   xml:space="preserve"
   x="0px"
   viewBox="0 0 88.901281 133.35693"
   y="0px"
   id="Top"><desc
   id="desc2"><referenceFile>svg.icon.Multimeter.fzp_20b055120da346da9f0d9df6dca6c01c_2_icon.svg</referenceFile></desc><metadata
   id="metadata31"><rdf:RDF><cc:Work
       rdf:about=""><dc:format>image/svg+xml</dc:format><dc:type
         rdf:resource="http://purl.org/dc/dcmitype/StillImage" /><dc:title></dc:title></cc:Work></rdf:RDF></metadata><defs
   id="defs29" /><g
   transform="translate(-11.016156,-1.6666011)"
   style="display:inline;opacity:1"
   gorn="0.3"
   id="breadboard"><path
     style="opacity:1;fill:#0000ff;stroke:#000080;stroke-width:0.80000001;stroke-linecap:butt;stroke-linejoin:miter;stroke-opacity:1"
     gorn="0.3.0"
     d="m 14.127603,7.8845928 c 13.828786,-7.76807536 72.477613,-7.74692426 82.922887,0 3.64822,19.8046952 2.909206,40.3221822 0,61.2196132 -2.502597,21.719128 6.63374,58.094694 -9.008906,63.267094 -22.385767,2.87667 -44.771534,3.1271 -67.157301,0 C 8.0843213,125.34734 16.02737,90.037448 14.02826,68.285051 10.637049,45.254059 10.42267,24.911155 14.127603,7.8845928 Z"
     id="shell" /><path
     style="fill:#ffffff;stroke:#000000;stroke-width:0.80000001;stroke-linecap:butt;stroke-linejoin:miter;stroke-opacity:1"
     gorn="0.3.1"
     d="M 19.655796,65.213997 H 91.31755 c 1.59838,-18.563807 3.679505,-37.127614 0,-55.6914213 -23.162045,-2.6739592 -46.866286,-3.8372029 -71.661754,0 -4.722777,18.5638073 -0.676078,37.1276143 0,55.6914213 z"
     id="display" /><path
     style="fill:#ffffff;stroke:#ffffff;stroke-width:0.80000001;stroke-linecap:butt;stroke-linejoin:miter;stroke-opacity:1"
     gorn="0.3.2"
     d="M 19.655796,66.213869 H 91.31755 c 1.59838,20.210567 1.427278,49.634791 -2.456974,60.836451 -23.162045,2.91116 -41.74759,4.58709 -66.543058,0.40949 -4.518029,-13.86337 -3.3378,-41.035374 -2.661722,-61.245941 z"
     id="panel" /><path
     style="opacity:1;vector-effect:none;fill:none;fill-opacity:1;stroke:#ff0000;stroke-width:1;stroke-linecap:butt;stroke-linejoin:bevel;stroke-miterlimit:4;stroke-dasharray:none;stroke-dashoffset:0;stroke-opacity:1;paint-order:normal"
     gorn="0.3.3"
     d="M 34.617674,31.46194 A 37.163666,39.382576 0 0 1 76.766078,30.542241"
     id="scale_ac" /><path
     style="opacity:1;vector-effect:none;fill:none;fill-opacity:1;stroke:#008080;stroke-width:1;stroke-linecap:butt;stroke-linejoin:bevel;stroke-miterlimit:4;stroke-dasharray:none;stroke-dashoffset:0;stroke-opacity:1;paint-order:normal"
     gorn="0.3.4"
     d="M 38.214486,34.848139 A 30.817722,32.144615 0 0 1 73.165769,34.097467"
     id="scale_lilv" /><path
     style="opacity:1;vector-effect:none;fill:none;fill-opacity:1;stroke:#000000;stroke-width:1;stroke-linecap:butt;stroke-linejoin:bevel;stroke-miterlimit:4;stroke-dasharray:none;stroke-dashoffset:0;stroke-opacity:1;paint-order:normal"
     gorn="0.3.5"
     d="M 43.682655,40.093799 A 21.167969,21.168045 0 0 1 67.68987,39.599463"
     id="scale_F" /><path
     style="opacity:1;vector-effect:none;fill:none;fill-opacity:1;stroke:#0000ff;stroke-width:0.99999994;stroke-linecap:butt;stroke-linejoin:bevel;stroke-miterlimit:4;stroke-dasharray:none;stroke-dashoffset:0;stroke-opacity:1;paint-order:normal"
     gorn="0.3.6"
     d="M 29.289017,25.64222 A 46.564171,50.114384 0 0 1 82.098809,24.471901"
     id="scale_ohm" /><g
     id="g17"
     transform="translate(0,-2.1570764e-6)"><g
       gorn="0.3.7.0"
       id="g18"><g
         gorn="0.3.7.0.0"
         id="g16"><g
           gorn="0.3.7.0.0.0"
           id="g14"><g
             style="display:none"
             gorn="0.3.7.0.0.0.0"
             id="Guides" /></g></g></g></g><g
     id="g26"
     transform="scale(1.240121,0.80637293)"><g
       gorn="0.3.8.0"
       id="g25"><g
         gorn="0.3.8.0.0"
         id="g23"><g
           gorn="0.3.8.0.0.0"
           id="g21"><g
             id="g20"
             transform="scale(0.80913493,1.2358878)"><text
   style="font-size:34.0065918px;font-family:'Droid Sans';display:none;stroke-width:1.24012101;enable-background:new"
   gorn="0.3.8.0.0.0.0.0"
   font-size="60.2685"
   x="43.714096"
   y="34.966156"
   id="text18">A</text>

</g></g></g></g></g><g
     style="display:none"
     gorn="0.3.9"
     id="g28"><title
       id="title20">Layer 1</title></g><g
     style="font-style:normal;font-variant:normal;font-weight:normal;font-stretch:normal;font-size:3.20000005px;line-height:6px;font-family:'Droid Sans';-inkscape-font-specification:'Droid Sans';letter-spacing:0px;word-spacing:0px;fill:#000000;fill-opacity:1;stroke:none;stroke-width:1"
     gorn="0.3.10"
     font-size="3.2"
     xml:space="preserve"
     id="textInput"><text
   style="font-size:3.20000005px;line-height:6px;stroke-width:1"
   gorn="0.3.10.0"
   font-size="3.2"
   x="79.020905"
   y="97.289612"
   id="tspan4573">VΩmA</text>

</g><g
     style="font-style:normal;font-variant:normal;font-weight:normal;font-stretch:normal;font-size:4.95699978px;line-height:9.68163967px;font-family:'Droid Sans';-inkscape-font-specification:'Droid Sans';letter-spacing:0px;word-spacing:0px;fill:#000000;fill-opacity:1;stroke:none;stroke-width:1"
     gorn="0.3.11"
     font-size="4.957"
     xml:space="preserve"
     id="textCOM"><text
   style="font-size:3.20000005px;stroke-width:1"
   gorn="0.3.11.0"
   font-size="3.2"
   x="69.415092"
   y="120.4722"
   id="tspan4569">COM</text>

</g><path
     style="fill:none;stroke:#000000;stroke-width:0.80000001;stroke-linecap:round;stroke-linejoin:miter;stroke-opacity:1"
     gorn="0.3.12"
     d="m 48.844694,80.450737 2.896845,5.017482"
     id="path4559" /><rect
     transform="rotate(-30)"
     width="4.7776937"
     style="opacity:1;vector-effect:none;fill:#000000;fill-opacity:0;stroke:#000000;stroke-width:0.80000001;stroke-linecap:round;stroke-linejoin:miter;stroke-miterlimit:4;stroke-dasharray:none;stroke-dashoffset:0;stroke-opacity:1;paint-order:normal"
     height="29.390059"
     gorn="0.3.13"
     x="-0.24107997"
     rx="1.3753967"
     ry="1.3753966"
     y="93.788353"
     id="handle" /><path
     style="color:#000000;font-style:normal;font-variant:normal;font-weight:normal;font-stretch:normal;font-size:medium;line-height:normal;font-family:'Droid Sans';font-variant-ligatures:normal;font-variant-position:normal;font-variant-caps:normal;font-variant-numeric:normal;font-variant-alternates:normal;font-feature-settings:normal;text-indent:0;text-align:start;text-decoration:none;text-decoration-line:none;text-decoration-style:solid;text-decoration-color:#000000;letter-spacing:normal;word-spacing:normal;text-transform:none;writing-mode:lr-tb;direction:ltr;text-orientation:mixed;dominant-baseline:auto;baseline-shift:baseline;text-anchor:start;white-space:normal;shape-padding:0;clip-rule:nonzero;display:inline;overflow:visible;visibility:visible;opacity:1;isolation:auto;mix-blend-mode:normal;color-interpolation:sRGB;color-interpolation-filters:linearRGB;solid-color:#000000;solid-opacity:1;vector-effect:none;fill:#0000ff;fill-opacity:1;fill-rule:nonzero;stroke:none;stroke-width:0.80000001;stroke-linecap:round;stroke-linejoin:miter;stroke-miterlimit:4;stroke-dasharray:4.80000007, 4.80000007;stroke-dashoffset:3.27999997;stroke-opacity:1;paint-order:normal;color-rendering:auto;image-rendering:auto;shape-rendering:auto;text-rendering:auto;enable-background:accumulate"
     gorn="0.3.14"
     font-size="medium"
     d="m 55.865234,74.306641 -1.851562,0.09375 h -0.01953 l -0.01953,0.0039 -0.283203,0.04297 0.119141,0.791015 0.263672,-0.04102 1.810547,-0.08984 1.80664,0.08984 0.78125,0.11914 0.121094,-0.791015 -0.798828,-0.121094 -0.01953,-0.0039 h -0.01953 l -1.851562,-0.09375 -0.01953,-0.002 z m -7.162109,1.445312 -0.01953,0.0078 -0.01758,0.0078 -1.582032,0.761719 -0.01758,0.0078 -0.01563,0.01172 -1.492187,0.90625 -0.01563,0.0098 -0.01563,0.01172 -0.806641,0.601563 0.480469,0.640625 0.787109,-0.587891 1.472657,-0.894531 0.0059,-0.0039 1.511719,-0.728516 0.01172,-0.0039 0.261719,-0.09766 -0.275391,-0.75 z m -8.146484,6.693359 -0.0098,0.01563 -0.01172,0.01562 -0.90625,1.492188 -0.0098,0.01758 -0.0078,0.01758 -0.761719,1.582032 -0.0098,0.01758 -0.0059,0.01758 -0.05273,0.142578 0.751953,0.27539 0.04883,-0.130859 0.0039,-0.01172 0.738281,-1.53125 0.888672,-1.458984 0.671875,-0.900391 -0.640625,-0.478515 z M 72.1875,99.69727 l -0.0039,0.01172 -0.728516,1.51172 -0.0039,0.006 -0.894531,1.47461 -0.216797,0.29102 0.640625,0.47851 0.230469,-0.31054 0.01172,-0.0137 0.0098,-0.0176 0.90625,-1.49219 0.01172,-0.0156 0.0078,-0.0176 0.761719,-1.58204 0.0078,-0.0176 0.0078,-0.01954 0.3125,-0.855469 -0.75,-0.27539 z m -5.041016,6.75585 -0.0059,0.006 -1.359375,1.01758 -1.457031,0.88672 -1.146485,0.55078 0.345704,0.72071 1.160156,-0.5586 0.01758,-0.008 0.01758,-0.01 1.492188,-0.90625 0.01562,-0.0117 0.01563,-0.01 1.392578,-1.04297 0.01563,-0.0117 0.01563,-0.0117 0.01953,-0.0176 -0.457031,-0.50391 -0.07227,-0.0957 z m -9.455078,3.95704 -1.80664,0.0898 -1.808594,-0.0898 -0.0293,-0.006 -0.119141,0.79101 0.04687,0.008 0.01953,0.002 0.01953,0.002 1.851562,0.0937 h 0.01953 0.01953 l 1.851562,-0.0937 0.01953,-0.002 0.01953,-0.002 1.035156,-0.1582 -0.121094,-0.79101 z"
     id="circle4553" /><circle
     style="opacity:1;vector-effect:none;fill:#ff0000;fill-opacity:1;stroke:#000000;stroke-width:1;stroke-linecap:butt;stroke-linejoin:miter;stroke-miterlimit:4;stroke-dasharray:none;stroke-dashoffset:0;stroke-opacity:1;paint-order:normal"
     r="3.4022975"
     gorn="0.3.15"
     cx="85.491768"
     cy="101.99656"
     id="connector2pin" /><circle
     style="opacity:1;vector-effect:none;fill:#000000;fill-opacity:1;stroke:#000000;stroke-width:1;stroke-linecap:butt;stroke-linejoin:miter;stroke-miterlimit:4;stroke-dasharray:none;stroke-dashoffset:0;stroke-opacity:1;paint-order:normal"
     r="3.4022975"
     gorn="0.3.16"
     cy="119.51477"
     cx="84.188759"
     id="connector1pin" /><circle
     style="opacity:1;vector-effect:none;fill:none;fill-opacity:1;stroke:#000000;stroke-width:1;stroke-linecap:butt;stroke-linejoin:miter;stroke-miterlimit:4;stroke-dasharray:none;stroke-dashoffset:0;stroke-opacity:1;paint-order:normal"
     r="16.504763"
     gorn="0.3.17"
     cx="55.884544"
     cy="92.803093"
     id="circle4545" /><g
     style="font-style:normal;font-variant:normal;font-weight:normal;font-stretch:normal;font-size:4.95699978px;line-height:9.68163967px;font-family:'Droid Sans';-inkscape-font-specification:'Droid Sans';letter-spacing:0px;word-spacing:0px;fill:#000000;fill-opacity:1;stroke:none;stroke-width:1"
     gorn="0.3.18"
     font-size="4.957"
     xml:space="preserve"
     id="text4567"><text
   style="font-size:3.20000005px;stroke-width:1"
   gorn="0.3.18.0"
   font-size="3.2"
   x="23.392223"
   y="114.36721"
   id="tspan4565">10A</text>

</g><circle
     style="opacity:1;vector-effect:none;fill:#ff0000;fill-opacity:1;stroke:#000000;stroke-width:1;stroke-linecap:butt;stroke-linejoin:miter;stroke-miterlimit:4;stroke-dasharray:none;stroke-dashoffset:0;stroke-opacity:1;paint-order:normal"
     r="3.4022975"
     gorn="0.3.19"
     cx="27.001209"
     cy="119.51477"
     id="10amp" /><circle
     style="opacity:1;vector-effect:none;fill:#3366af;fill-opacity:1;stroke:#000000;stroke-width:1;stroke-linecap:butt;stroke-linejoin:miter;stroke-miterlimit:4;stroke-dasharray:none;stroke-dashoffset:0;stroke-opacity:1;paint-order:normal"
     r="5.7187552"
     gorn="0.3.20"
     cy="74.77816"
     cx="26.856432"
     id="adjust" /><g
     style="font-style:normal;font-variant:normal;font-weight:normal;font-stretch:normal;font-size:3.20000005px;line-height:6px;font-family:'Droid Sans';-inkscape-font-specification:'Droid Sans';letter-spacing:0px;word-spacing:0px;fill:#ff0000;fill-opacity:1;stroke:none;stroke-width:1"
     gorn="0.3.21"
     font-size="3.2"
     xml:space="preserve"
     id="text4737"><text
   style="font-size:3.20000005px;line-height:6px;fill:#ff0000;stroke-width:1"
   gorn="0.3.21.0"
   font-size="3.2"
   x="77.666336"
   y="77.289612"
   id="tspan4735">V~</text>

</g><g
     style="font-style:normal;font-variant:normal;font-weight:normal;font-stretch:normal;font-size:3.20000005px;line-height:6px;font-family:'Droid Sans';-inkscape-font-specification:'Droid Sans';letter-spacing:0px;word-spacing:0px;fill:#0000ff;fill-opacity:1;stroke:none;stroke-width:1"
     gorn="0.3.22"
     font-size="3.2"
     xml:space="preserve"
     id="text4741"><text
   style="font-size:3.20000005px;line-height:6px;fill:#0000ff;stroke-width:1"
   gorn="0.3.22.0"
   font-size="3.2"
   x="23.162907"
   y="89.525078"
   id="tspan4739">V=</text>

</g><g
     style="font-style:normal;font-variant:normal;font-weight:normal;font-stretch:normal;font-size:3.20000005px;line-height:6px;font-family:'Droid Sans';-inkscape-font-specification:'Droid Sans';letter-spacing:0px;word-spacing:0px;fill:#0000ff;fill-opacity:1;stroke:none;stroke-width:1"
     gorn="0.3.23"
     font-size="3.2"
     xml:space="preserve"
     id="textOHM"><text
   style="font-size:3.20000005px;line-height:6px;fill:#0000ff;stroke-width:1"
   gorn="0.3.23.0"
   font-size="3.2"
   x="69.385773"
   y="113.13087"
   id="tspan4743">Ω</text>

</g><g
     style="font-style:normal;font-variant:normal;font-weight:normal;font-stretch:normal;font-size:3.20000005px;line-height:6px;font-family:'Droid Sans';-inkscape-font-specification:'Droid Sans';letter-spacing:0px;word-spacing:0px;fill:#ff0000;fill-opacity:1;stroke:none;stroke-width:1"
     gorn="0.3.24"
     font-size="3.2"
     xml:space="preserve"
     id="text4749"><text
   style="font-size:3.20000005px;line-height:6px;fill:#ff0000;stroke-width:1"
   gorn="0.3.24.0"
   font-size="3.2"
   x="26.623444"
   y="107.32211"
   id="tspan4747">mA=</text>

</g><path
     style="color:#000000;font-style:normal;font-variant:normal;font-weight:normal;font-stretch:normal;font-size:medium;line-height:normal;font-family:'Droid Sans';font-variant-ligatures:normal;font-variant-position:normal;font-variant-caps:normal;font-variant-numeric:normal;font-variant-alternates:normal;font-feature-settings:normal;text-indent:0;text-align:start;text-decoration:none;text-decoration-line:none;text-decoration-style:solid;text-decoration-color:#000000;letter-spacing:normal;word-spacing:normal;text-transform:none;writing-mode:lr-tb;direction:ltr;text-orientation:mixed;dominant-baseline:auto;baseline-shift:baseline;text-anchor:start;white-space:normal;shape-padding:0;clip-rule:nonzero;display:inline;overflow:visible;visibility:visible;opacity:1;isolation:auto;mix-blend-mode:normal;color-interpolation:sRGB;color-interpolation-filters:linearRGB;solid-color:#000000;solid-opacity:1;vector-effect:none;fill:#ff0000;fill-opacity:1;fill-rule:nonzero;stroke:none;stroke-width:0.80000001;stroke-linecap:round;stroke-linejoin:miter;stroke-miterlimit:4;stroke-dasharray:4.80000007, 4.80000007;stroke-dashoffset:3.27999997;stroke-opacity:1;paint-order:normal;color-rendering:auto;image-rendering:auto;shape-rendering:auto;text-rendering:auto;enable-background:accumulate"
     gorn="0.3.25"
     font-size="medium"
     d="m 62.960938,76.587891 1.341796,0.644531 0.0059,0.0039 1.472656,0.894531 1.205078,0.900391 0.478516,-0.640625 -1.222656,-0.914063 -0.01563,-0.01172 -0.01562,-0.0098 -1.492188,-0.90625 -0.01758,-0.01172 -0.01758,-0.0078 -1.375,-0.662109 z m 7.234374,5.835941 0.361329,0.482422 0.894531,1.472656 0.0039,0.0059 0.728516,1.511718 0.0039,0.01172 0.228516,0.619141 0.75,-0.273438 -0.230469,-0.632812 -0.0078,-0.01758 -0.0078,-0.01758 -0.761719,-1.582032 -0.0078,-0.01758 -0.01172,-0.01758 -0.90625,-1.492188 -0.0098,-0.01562 -0.01172,-0.01563 -0.375,-0.501953 z m -32.710937,8.46875 -0.002,0.01953 -0.002,0.01953 -0.0918,1.851562 -0.002,0.01953 0.002,0.02148 0.0918,1.849609 0.002,0.01953 0.002,0.01953 0.101563,0.660156 0.791015,-0.121094 -0.09961,-0.638672 -0.08789,-1.810547 0.08789,-1.80664 0.0625,-0.40625 -0.791016,-0.121094 z m 36.009766,0.173828 0.08594,1.736328 -0.105118,2.23959 0.798829,0.04102 c 1.29e-4,-0.767541 0.07251,-1.533369 0.107068,-2.300131 l -0.08789,-1.757812 z m -34.607422,9.0332 0.724609,1.50391 0.0078,0.0176 0.0098,0.0156 0.90625,1.49219 0.01172,0.0176 0.0098,0.0137 0.830078,1.11132 0.640625,-0.48046 -0.814453,-1.0918 -0.888672,-1.45899 -0.716797,-1.488273 z m 6.02539,7.57227 0.615235,0.45898 0.01563,0.01 0.01563,0.0117 1.492187,0.90625 0.01563,0.01 0.01758,0.008 1.582032,0.76172 0.01758,0.01 0.01953,0.006 0.498047,0.18359 0.27539,-0.75195 -0.46289,-0.16797 -0.0078,-0.004 -1.560547,-0.75 -1.457031,-0.88672 -0.595703,-0.44726 z"
     id="knob" /><path
     style="fill:none;stroke:#000000;stroke-width:0.80000001;stroke-linecap:round;stroke-linejoin:miter;stroke-opacity:1"
     gorn="0.3.26"
     d="m 26.412475,23.035935 23.506034,22.65958"
     id="needle" /><path
     style="opacity:1;fill:#e6e6e6;stroke:#000000;stroke-width:0.80000001;stroke-linecap:butt;stroke-linejoin:miter;stroke-opacity:1"
     gorn="0.3.27"
     d="m 56.357422,41.667967 a 17.966625,18.171373 0 0 0 -16.4375,10.939453 c -5.710301,0.07807 -12.219794,0.179273 -21.074219,0.320312 0.599345,6.942588 0.661402,8.191876 0.810547,12.28711 h 71.662109 c 0.334504,-3.88498 0.403225,-7.317093 1.009766,-12.269532 -8.155797,-0.155992 -14.19792,-0.265663 -19.519531,-0.345703 A 17.966625,18.171373 0 0 0 56.357422,41.667967 Z"
     id="path4535" /><text
     id="type"
     y="50.052822"
     x="76.724915"
     style="font-style:normal;font-variant:normal;font-weight:normal;font-stretch:normal;font-size:18.41217422px;line-height:28.7690239px;font-family:Arial;-inkscape-font-specification:Arial;letter-spacing:0px;word-spacing:0px;fill:#000000;fill-opacity:1;stroke:none;stroke-width:0.75000083"
     xml:space="preserve"><tspan
       style="stroke-width:0.75000083"
       y="50.052822"
       x="76.724915"
       id="tspan4535">V</tspan></text>
<circle
     style="opacity:1;vector-effect:none;fill:#b3b3b3;fill-opacity:1;stroke:#000000;stroke-width:1;stroke-linecap:butt;stroke-linejoin:miter;stroke-miterlimit:4;stroke-dasharray:none;stroke-dashoffset:0;stroke-opacity:1;paint-order:normal"
     r="5.7187552"
     gorn="0.3.28"
     cx="56.045265"
     cy="57.64938"
     id="circle4563" /></g>
</svg>